<svg xmlns="http://www.w3.org/2000/svg" width="100%" viewBox="0 0 920 352" role="img" aria-label="LLM-as-a-judge harness">
<style>text{font-family:"Anthropic Sans",Inter,"Source Sans 3","IBM Plex Sans",sans-serif;fill:#ececec}</style>
<rect x="0" y="0" width="920" height="352" fill="#0a0a0a"/>
<text x="460.0" y="36" text-anchor="middle" font-size="20" font-weight="bold">LLM-as-a-judge harness</text>
<rect x="40" y="96" width="220" height="88" rx="8" fill="none" stroke="#7fb069" stroke-width="2"/>
<text x="56" y="126" font-size="15" font-weight="bold">System I/O</text>
<text x="56" y="148" font-size="12" fill="#a8a8a8">your RAG input + output</text>
<rect x="350" y="96" width="220" height="88" rx="8" fill="none" stroke="#f2c14e" stroke-width="2"/>
<text x="366" y="126" font-size="15" font-weight="bold">Judge model</text>
<text x="366" y="148" font-size="12" fill="#a8a8a8">a different FM</text>
<rect x="660" y="96" width="220" height="88" rx="8" fill="none" stroke="#1E4D8C" stroke-width="2"/>
<text x="676" y="126" font-size="15" font-weight="bold">Scores</text>
<text x="676" y="148" font-size="12" fill="#a8a8a8">per dimension</text>
<line x1="260" y1="140" x2="350" y2="140" stroke="#a8a8a8" stroke-width="2"/>
<polygon points="350,140 340,135 340,145" fill="#a8a8a8"/>
<line x1="570" y1="140" x2="660" y2="140" stroke="#a8a8a8" stroke-width="2"/>
<polygon points="660,140 650,135 650,145" fill="#a8a8a8"/>
<rect x="350" y="216" width="220" height="72" rx="8" fill="none" stroke="#e07a5f" stroke-width="2"/>
<text x="366" y="246" font-size="15" font-weight="bold">JSONL prompt dataset</text>
<text x="366" y="268" font-size="12" fill="#a8a8a8">in S3: prompts + judging</text>
<text x="366" y="272" font-size="12" fill="#a8a8a8">instructions + benchmarks</text>
<line x1="460" y1="216" x2="460" y2="184" stroke="#a8a8a8" stroke-width="2"/>
<polygon points="460,184 450,179 450,189" fill="#a8a8a8"/>
<text x="60" y="328" font-size="13" fill="#a8a8a8">The dataset defines good. The judge applies it. Ground truth kills subjectivity.</text>
</svg>
